<svg xmlns="http://www.w3.org/2000/svg" xmlns:xlink="http://www.w3.org/1999/xlink" width="500" zoomAndPan="magnify" viewBox="0 0 375 374.999991" height="500" preserveAspectRatio="xMidYMid meet" version="1.0"><path fill="#fa6e2e" d="M 232.949219 277.121094 C 247.898438 291.671875 273.492188 297.160156 295.335938 285.390625 C 311.65625 276.582031 326.09375 258.492188 324.328125 232.859375 C 323.136719 215.496094 293.132812 165.960938 276.164062 138.128906 C 263.347656 117.078125 252.664062 94.261719 234.574219 77.042969 C 196.992188 41.300781 150.492188 62.09375 135.148438 100.871094 C 148.039062 93.902344 157.640625 89.246094 180.566406 93.179688 C 222.410156 100.363281 243.78125 157.371094 263.242188 191.304688 C 267.96875 199.539062 272.589844 207.625 277.609375 216.21875 C 280.75 221.597656 284.324219 227.914062 285.804688 233.941406 C 289.882812 250.585938 273.492188 259.503906 259.449219 247.699219 C 241.039062 232.210938 222.445312 189.679688 213.5625 173.867188 C 199.121094 148.089844 181.757812 121.339844 144.535156 127.621094 C 107.351562 133.9375 92.402344 172.714844 72.257812 208.492188 C 48.898438 249.902344 80.777344 297.484375 127.421875 290.949219 C 141.140625 289.035156 150.601562 282.898438 157.964844 274.847656 C 162.984375 269.394531 173.5625 253.761719 176.304688 246.722656 L 155.113281 210.078125 C 154.753906 210.40625 154.570312 210.691406 153.488281 211.992188 L 139.410156 235.894531 C 123.453125 263.1875 100.925781 256.472656 102.402344 238.132812 C 103.449219 224.554688 116.738281 206.253906 120.851562 199.25 C 133.019531 178.453125 151.429688 144.914062 173.34375 179.246094 C 177.351562 185.566406 181.757812 193.976562 184.71875 199.03125 C 187.570312 203.871094 189.808594 207.949219 192.589844 212.824219 C 205.511719 233.039062 216.378906 260.984375 232.949219 277.121094 Z M 232.949219 277.121094 " fill-opacity="1" fill-rule="evenodd"/></svg>